<?xml version="1.0" encoding="utf-8"?>
<!-- Generator: Adobe Illustrator 24.1.0, SVG Export Plug-In . SVG Version: 6.00 Build 0)  -->
<svg version="1.1" id="Layer_1" xmlns="http://www.w3.org/2000/svg" xmlns:xlink="http://www.w3.org/1999/xlink" x="0px" y="0px"
	 viewBox="0 0 619 787" style="enable-background:new 0 0 619 787;" xml:space="preserve">
<style type="text/css">
	.st0{fill:none;stroke:#FCFF12;stroke-width:6;stroke-linecap:round;stroke-linejoin:round;stroke-miterlimit:10;}
	.st1{fill:#2F1EFF;}
	.st2{fill:none;stroke:#FCFF12;stroke-width:9;stroke-linecap:round;stroke-linejoin:round;stroke-miterlimit:10;}
	.st3{fill:none;stroke:#FCFF12;stroke-width:8;stroke-linecap:round;stroke-linejoin:round;stroke-miterlimit:10;}
	.st4{fill:none;stroke:#000000;stroke-width:6;stroke-linecap:round;stroke-linejoin:round;stroke-miterlimit:10;}
	.st5{fill:none;stroke:#000000;stroke-width:4;stroke-linecap:round;stroke-linejoin:round;stroke-miterlimit:10;}
</style>
<g id="yellow_reflection">
	<path class="st0" d="M77.5,110.8c-27.2,25.9-41.4,62.4-54.5,96.8"/>
</g>
<g id="blue_middle">
	<path class="st1" d="M22.5,322.5c2,1.1,3.8,2.7,5.3,4.6s2.6,4.1,3.4,6.3c1.6,4.5,2.1,9.2,2.2,13.7s-0.2,8.9-0.3,13.2
		c-0.1,4.3-0.2,8.6,0.4,13.1c-2.9-3.6-4.3-8.3-5.1-12.8c-0.8-4.5-0.9-9.1-1-13.4c-0.1-4.4-0.2-8.6-0.8-12.7
		C26,330.5,24.8,326.5,22.5,322.5z"/>
</g>
<g id="blue_top_right">
	<path class="st1" d="M257.5,90.5c2.1,2,3.7,4,5.2,6.1s2.9,4.2,4,6.5c1.2,2.3,2.2,4.7,2.9,7.3c0.7,2.6,1.2,5.3,0.8,8.1
		c-2-2-3.6-4-5.1-6.1s-2.8-4.2-4-6.5s-2.2-4.7-3-7.2C257.7,96,257.2,93.4,257.5,90.5z"/>
</g>
<g id="blue_bottom_right">
	<path class="st1" d="M206.5,428.5c-1,2.2-2.3,4-3.8,5.5c-1.5,1.6-3.2,2.9-5.1,4c-1.9,1.1-4,1.9-6.3,2.2c-2.2,0.3-4.6,0.2-6.8-0.7
		c1.9-1.5,3.6-2.6,5.2-3.7c1.7-1.1,3.3-2.1,5-3s3.5-1.8,5.4-2.6C202,429.4,204.1,428.7,206.5,428.5z"/>
</g>
<path id="light_on_support_wires" class="st2" d="M183.5,373.5c5.9-55.2,4.2-112.1,11.5-166.5c13-0.9,26.4-5.6,34-18
	c8-47.3-40.2-16.9-33,17c-8.3,4.2-21.8-1.7-31.5-3l-12.8,10.5c-0.1-3,2.7-3.5,4.3-5c23.1-12.3-9.2-48.4-31-36.9
	c-11.8,2.7-38.2,31-20.5,37.2c-15.6-33.8-43.1-9.4-32.9,19.7c18.7,52.2,48.1,102.4,46.4,160"/>
<path id="light_reflection_cable" class="st3" d="M149.4,560.5c-0.3,19.6,11.8,34.3,29.5,42.6c15.6,7.3,33,9.1,49.9,12.2
	c14.1,2.5,30.9,5.8,42.3,15.1c11.3,9.2,17.8,22.9,25.6,34.9c16.9,26,42.2,46.6,70.7,58.6c27.6,11.6,58.5,15.2,88.1,10.2"/>
<path id="light_reflection_bulb_bottom" class="st0" d="M158,456c58.2,22.8,8,45.6-38.4,45.6c-2.7,0-4.7,2.4-4,5
	c4.8,18.4,29.6,13.3,47.5,33.2"/>
<path id="bulb_top" class="st4" d="M145.5,8.5c-1.3,0.5-3.1,0.6-3.9,1.6c-7.4,7.9-15,15.7-22,24C103.7,52.6,88.3,71.4,72.5,90
	c-19.1,22.5-36,46.4-48.9,73c-6.2,12.9-11,26.4-13.3,40.5c-1.8,10.5-2.3,21.4-1.5,32c1,13.6,4.7,26.7,12.1,38.6
	c7.2,11.5,13.6,23.5,20.1,35.5c5.4,9.9,6.7,20.9,7.1,32c0.5,11.5,0.7,23.1,2.1,34.5c1.2,9.4,5.8,17.6,13.8,23.6
	c2.2,1.7,3.9,4.1,5.9,6.3c7,2.6,14.3,5.6,21.7,8.1c4.5,1.5,9.4,2.2,14,3.6c15,4.8,30.5,5.2,46,5.4c10.9,0.1,21.4-2.3,32-4.3
	c11.8-2.2,22.5-6.7,33-12.1c14.8-7.7,23-19.4,24.4-36.6c0.7-8.8,0.7-17.7,1.1-26.5c0.4-10,0.9-20.2,4.7-29.4
	c3.6-8.8,9.2-16.7,13.8-25.1c5.4-9.8,11.6-19.3,15.8-29.6c5.5-13.6,6.2-28.3,5.2-42.9c-0.9-13.4-3.9-26.5-8.7-38.9
	c-4.2-10.9-9.5-21.4-15.5-31.5c-7.3-12.4-15.1-24.7-24-36c-16.6-21-34.1-41.2-51.4-61.6c-10.1-11.9-20.3-23.7-30.5-35.5
	c-1.5-1.7-3.3-3-5-4.5"/>
<path id="cable" class="st4" d="M143.2,558.8c-1.5,14.1-5.2,30-0.1,43.7c9.4,25.3,41.3,25.6,63.8,26.5c21.5,0.9,43.1,0,64.4,3.6
	c19.4,3.3,31.3,12.5,39.6,30.5c8.4,18.3,13.4,36.5,28.7,50.4c14,12.7,31.7,20.8,49.9,25.4c25.8,6.4,141.7,7.3,168.1,5.4"/>
<path id="bulb_bottom" class="st4" d="M69,406.5c-6.7,8-10.7,16.7-9.8,27.5c1,11.7,7.2,19.7,16.4,26c4.4,3.1,9,6,13.5,9l-21.3-14.5
	c-1.1,1.7-2.8,3.2-3.1,5c-2.1,12,2.5,21.8,11,29.9c2.4,2.2,3.9,4.3,4,7.6c0.1,2.2,0.6,4.5,1.5,6.5c3.9,8.7,7.9,17.4,11.9,26
	c8.8,19.1,34.4,30.1,55,29c2.5-0.1-2.5,0.1,0,0c9.9-0.3,25.7-6.1,33.5-11.5c16-11.2,22.9-28.5,28.2-46.1c1.8-6.1,4.6-10.7,8.3-15.5
	c8.1-10.4,11.2-18.5,4.9-31.7c1.2-1.8,2.7-3.6,3.6-5.7c1.6-3.7,3.1-7.6,4-11.5c2.8-11.9-2.4-21.5-9.4-30.5"/>
<g id="shadow_big">
	<path d="M201.5,417c-4.4,2.2-8.7,4.6-13.2,6.8c-2.2,1.1-4.5,2.2-6.8,3.3c-2.3,1-4.7,2-7,2.9c-2.4,0.9-4.8,1.8-7.2,2.5
		c-2.4,0.8-5,1.3-7.5,1.8s-5.1,0.9-7.7,1.1c-2.6,0.2-5.2,0.2-7.8,0c-5.2-0.4-10.4-1.3-15.3-2.8c-5-1.4-9.7-3.3-14.2-5.3l-13.6-5.9
		c-4.5-1.9-9.3-4.3-12.7-8c4.5,2.3,9.1,3.3,13.9,4.3s9.7,2.1,14.4,3.2c4.8,1.1,9.5,2,14.1,2.6c4.6,0.6,9.2,1,13.8,0.9h6.9
		c2.3,0,4.6,0,7,0c2.3-0.1,4.7-0.2,7.1-0.4c2.4-0.1,4.8-0.3,7.2-0.5C182.5,422.5,191.9,419.4,201.5,417z"/>
</g>
<g id="shadow_lower">
	<path d="M117.5,510c5.2,1.1,10.2,2.7,15.2,4.3c2.5,0.8,5,1.7,7.2,2.2c2.3,0.5,4.7,0.8,7.1,0.8c4.8,0,9.7-1.1,14.5-2.7
		c4.9-1.7,9.8-3.5,15-4.7c-2.1,1.6-4.4,3-6.6,4.4c-1.1,0.7-2.3,1.4-3.4,2c-1.1,0.7-2.3,1.3-3.5,1.9c-4.8,2.4-10.3,4-15.9,4.1
		c-2.8,0-5.7-0.4-8.4-1.2c-0.7-0.2-1.3-0.4-2-0.7l-1-0.4l-0.9-0.4c-1.2-0.5-2.4-1.1-3.6-1.7C126.5,515.6,121.9,513,117.5,510z"/>
</g>
<g id="shadow_middle_1_">
	<path d="M179.5,473.5c-3.9,4.3-8.9,7.6-14.3,9.9c-5.5,2.2-11.4,3.4-17.3,3.5c-5.9,0.1-11.9-0.9-17.4-3.1
		c-5.5-2.1-10.6-5.4-14.4-9.8c5.1,2.7,10.3,4.8,15.6,6.1c5.3,1.3,10.7,1.9,16.2,1.8c5.4-0.1,10.8-0.8,16.1-2.2
		C169.2,478.2,174.4,476.2,179.5,473.5z"/>
</g>
<g id="the_botthom_line__x28_inside_the_bulb_x29_">
	<path d="M216.5,382c-3-0.7-6-1.6-8.9-2.4c-3-0.7-6-1.3-8.9-2L190,375l-8.8-2.1c-11.8-2.5-23.9-3.6-36-3.6
		c-12.1,0.1-24.2,1.4-36,3.8l-8.8,2c-2.9,0.8-5.8,1.7-8.7,2.5l-9,1.8c-3,0.7-6,1.4-9,2.1c2.7-1.6,5.4-3.1,8.1-4.6
		c2.8-1.4,5.6-2.7,8.4-4c0.7-0.3,1.5-0.5,2.2-0.6c0.8-0.2,1.5-0.4,2.2-0.6l4.5-1.3l9.1-2.1c12.2-2.5,24.6-3.8,37-3.9
		s24.9,1.1,37.1,3.7l9.1,2.2l9,2.6c2.8,1.4,5.6,2.8,8.4,4.3C211.2,378.7,213.9,380.3,216.5,382z"/>
</g>
<path id="support_wires" class="st5" d="M114.5,388.5c-0.1-6.3,0.4-12.7-0.5-19v-1c-2.6-24.8-2.4-49.7-4-74.5
	c-0.7-32.4-21.6-49-39.5-72.5c-9.4-14.4-15.2-46.9,7-51.9c16.9-0.6,18.2,21.2,26,31.9c6.8,11.6,18.9,7,22-3.5l-1.5-3.5
	c-7.5-1.9-14.1-16-5-19.4c5.8-1,8.8,13.2,6,17.4c-1.2,2.7-0.7,4.2,2.4,5.6c11.5,4.9,23,4.2,34.5,0.3c2.8-0.9,3.7-2.3,2.8-6
	c-1.4-5.2-0.8-15.9,6.2-16.9c8.3,3.6,3.1,17.1-5,19.5l-1.5,2.5c2.5,9.6,14.8,15.1,21,5.5c2.4-3.6,4.2-7.5,6-11.5
	c3-6.8,5.8-13.8,11.4-19c16-10.8,27.7,11.1,24.6,26.5c-1.8,19.6-16,33-28.2,46.9c-20.1,22.3-20.6,51.3-20.7,79.6
	c0,21.1-3.2,42-3.7,63"/>
<line id="light_reflection_top" class="st0" x1="88.6" y1="97.7" x2="94.5" y2="92.5"/>
</svg>
