<?xml version="1.0" encoding="utf-8"?>
<!-- Generator: Adobe Illustrator 24.1.0, SVG Export Plug-In . SVG Version: 6.00 Build 0)  -->
<svg version="1.1" id="Layer_1" xmlns="http://www.w3.org/2000/svg" xmlns:xlink="http://www.w3.org/1999/xlink" x="0px" y="0px"
	 viewBox="0 0 1920 685" style="enable-background:new 0 0 1920 685;" xml:space="preserve">
<style type="text/css">
	.st0{fill:none;stroke:#FCFF12;stroke-width:14;stroke-linecap:round;stroke-linejoin:round;stroke-miterlimit:10;}
	.st1{fill:none;stroke:#2F1EFF;stroke-width:7;stroke-linecap:round;stroke-linejoin:round;stroke-miterlimit:10;}
	.st2{fill:none;stroke:#000000;stroke-width:8;stroke-linecap:round;stroke-linejoin:round;stroke-miterlimit:10;}
	.st3{fill:none;stroke:#000000;stroke-width:7;stroke-linecap:round;stroke-linejoin:round;stroke-miterlimit:10;}
</style>
<path id="yellow_line" class="st0" d="M43.5,554.5c28.7-0.9,67,2.4,85,27.3c0.3,0.4,0.7,0.8,1.1,1.2l0,0c0.9,0.7,1.6,1.7,2,2.8
	c8,25.5-11.3,54.4-34.8,65.2c-3.9,1.8-8.2,2.6-12.4,1.9c-24.5-3.8,3.3-42.5,16.1-52.3c21.8-19.2,51.6-25.8,79.5-30.4
	c39.6-5.1,79.8-4.8,119.6-2.3c24.8,1.6,46.4-16.4,49.5-41c4.7-38.1,1.1-86.9,56.9-99.3c32.4,2.3,36.8-62,60.2-55.3
	c3.3,0.9,5.9,3.4,7.3,6.4c7.1,15,18.9,23.6,36.4,24.2c52.9,10.8,32.9,7,61-21.6c2.1-2.2,5-3.6,8-4.1c40.3-6,45.9-32.1,65.1-61.1
	c27.4-16.4,37.2,10.4,59,16.4c61,13.5,81.4-25,81.5-79.9c-1.2-40.8,44.6-53,58-86C857.2,114.7,857.6,59.7,862.2,7c0,0,0,0,0,0
	l3.7,36.5c0,0,0,0,0,0c12.8,17.7,6.7,44.3,20.6,62.2c1,1.3,2.1,2.4,3.2,3.6c16,16.3,18.7,36.6,19.1,57.8c0.2,11.6,3.5,23,9.8,32.8
	c30,47.2,38.6,27.6,41.9,121.6c3.1,16.7-1.9,38.5,10,51.9c31,40.2,21.3,101,34.5,149.1c5.6,21.1,49.2,64.9,49.9,20
	c12.7-40.1,45.3-69.2,41.1-116c79.1-197.5,138.5,30.7,162.2-130.4c1.1-7.8,10.3-11.4,16.4-6.6v0c2.3,1.8,3.8,4.5,3.9,7.5
	c5,94.3,163.4,24.6,179.5,122.9c41.9,113.8-12.2,139,140.9,159.5l108,30.1c-31.1-103.7,138.9-93.8,6-0.5l1.5,3
	c66.8,17.8,133.7-47.4,194-72"/>
<path id="blue_right_bottom" class="st1" d="M234.5,533c-15.9-0.8-32.4-0.6-48-3.5"/>
<path id="blue_left_bottom" class="st1" d="M1891.5,620.5c-14.2,7.5-28.5,17.5-45,19"/>
<path id="blue_bottom" class="st1" d="M1459.5,642.5c-65.6,0.5-131.3,0.3-197,0"/>
<path id="blue_top_left" class="st1" d="M614.5,214.8c8.9,8.1,16,18.7,25,26.3"/>
<path id="blue_left_down_bottom" class="st1" d="M52.2,584c2.8,10.8-1.8,19.6-7.2,28.5"/>
<path id="blue_right_top" class="st1" d="M1565,448.5c2.1,11.6,1.2,23.5,3.5,35"/>
<path id="blue_top_top" class="st1" d="M878,26.5c0.5,9,1,18,1.5,27"/>
<path id="blue_top_right" class="st1" d="M1302.5,263c2.9-0.3,5.3,1.4,8,2"/>
<g id="Layer_2">
</g>
<g id="Layer_3">
	<path class="st2" d="M1874.4,587.8c0,0-67,36.2-116.9,39.4c-49.9,3.1-51.7-73.3-14.8-92.8c19.5-10.3,28.8-1.9,33.2,7.1
		c3.7,7.5,4.1,16.2,1.8,24.3c-16.8,58.8-114.2,53.2-114.2,53.2l-6.9-0.1c-15,0.3-30-0.2-45-0.4c-3.4,0-5.1-2.2-5.4-5
		c-0.3-2.6-0.2-5.3,0.3-8c0.8-4.7-1.5-7-6.4-7c-11.5,0.1-23-1.3-34.5,0.1c-4.3,0.5-7.6-1.4-9.9-4.2c-5-6.1-11.2-10.8-17.1-15.9
		l-7.1,5.1c-7.4,7.7-12.6,18.7-25.9,17.9c-7.3-0.4-14.7,0.2-22-0.4c-3.5-0.3-4.6-2.3-5-5.1c-1.3-10-0.1-20,0.1-30
		c0.1-5.4-1.7-8-7.1-8c-10.7,0-21.3,0-32,0c-14.3,0-28.7,0-43,0l-2,28.5c0.1,3.6-1.8,4.5-5,4.5c-9.3,0.1-18.7,0.5-28,0.4
		c-4.3-0.1-4.8,1.9-5.2,5.6c-0.5,5,0.3,10.1-0.8,15l-18,0.7c-4.1-0.1-8.3-0.6-12.5-0.2c-10.3,0.9-20.6,0.8-30.9,0
		c-2.3-0.2-4.2-2.2-4.1-4.5c0-5.7,0.1-11.3,0-17l-1.5-25.5c-3.5-0.2-7-0.4-10.5-0.5c-5.5-0.2-5.5-0.2-5.5-5.5c0-10.3,0-20.7,0-31
		c0-2.5,0.1-5.7-3-5.9l-17.5-0.6c-4.7,0.1-5.1-2.9-5-6.6c0.1-24.3,0-48.7,0-73c0-22.3-0.2-44.7,0.2-67c0.1-5-3.1-7.8-7.7-7.5
		c-3.8,0.2-7.7,0.6-11.5,0.4c-5.8-0.3-8.6,0-8.5-8.4c0.1-10.8,0-21.7,0-32.5c0-4.2-2.7-7.3-6.5-7l-42.5,0.4c-9.5,0-19,0-28.5,0
		c-7.8,0-15.7,0.2-23.5-0.4c-5.5-0.4-8.4,2.7-8.5,8.4c-0.1,9.8,0.9,19.7,0.1,29.5l-1.3,6.5c-5.8,1.1-11.6,0.3-17.4,0.5
		c-3.2,0.1-5.8,2.8-5.8,6c0,40.8,0,81.7,0,122.5c0,1.7,0,3.3-0.3,5c-0.7,3.3-2.2,4.7-5.6,4.5c-5.3-0.2-10.7-0.1-16-0.1
		c-5.4,0-6.5,1.1-6.5,6.5c0,25.3-0.1,50.7,0.1,76c0,5.2-1,7-7.1,7c-9,0-18-0.4-27,0.1c-4.7,0.3-9.1-2.4-14.1-0.3
		c-2.5,1.1-5.9-4.3-5.9-8.3c0-16.8,0-33.7,0-50.5c0-1.3-0.3-2.7-0.5-4L991,518c1.1-7.6,0.1-15.3,0.5-23c0.4-7.3-1.2-14.7,0-22
		c0.6-3.6-1.2-5.1-5-5.6l-11.5,0.6c-1.6-5.1-0.7-10.1-1-15.1c-0.6-11.7,1-23.4-1-35l-10-1.7c-1.9,0.2-4-0.5-4-3.3
		c-0.1-4.5-0.3-9-0.5-13.5l0.4-20c-0.5-11.3-0.3-22.7-0.3-34L957,328c-3.7-0.2-7.3-0.4-11-0.5c-3.1-0.1-5.5,1.1-6,4.5
		c-1,6.1-0.4,12.3-0.5,18.5l-17,18c-7,6.2-13.2,13.2-20,19.5c-3,2.8-0.8,6.7-1.9,10l-11.1,18c-5.9,0-8,2-8,8c0,15,0,30,0,45
		c0,2.3,0.3,4.7-1.4,6.8c-1.4,1.7-3.5,2.7-5.7,2.7c-1.6,0-3.2,0-4.8,0c-5.4,0.1-8.2,2.7-8.5,8c-0.8,18.2-0.8,36.3-0.1,54.5
		c0.1,2.5-0.5,5-0.4,7.5c0.1,9.7,0.3,19.3,0.5,29c0,1.3,0,3.5-0.2,4.8c-0.9,10.9-0.8,11-12.8,11.2c-3.9,0.1-7.7-0.4-11.6-0.4
		c-4.4-0.1-7.9-3.6-7.9-8c0-13,0-26,0-39l-0.1-9.5c0.1-4.5,0-9,0-13.5c0-15.5,0-31,0-46.5c0-37,0-74,0-111c0-6.4-1.7-8-8.2-7.1
		c-1.1,0.1-2.8,0.2-3.8,0.1c-7.7-0.8-15.3-0.4-23-0.5c-5.1-0.1-9.2,1.1-12.1,5.9c-2.5,4.3-5.9,8.1-8.9,12
		c-10,13.1-20.2,26.1-30.5,39c-1.4,1.7-4,3.3-5.9,2.9c-3.6-0.9-7.1,0-10.6,0c-5.8,0-11.8-1.6-18,0.7c0,6.1-0.3,12.3,0.1,18.4
		c0.2,4-1.7,5.6-5.1,6c-6.2,0.6-12.3,0.9-18.5,0l-2-10c0-6.7,0-13.3,0-20l-3.5-55c-3.8,0-6.7,0.5-10,0.5
		c-21.8-0.3-43.7,0.1-65.5-0.7c-8.4-0.3-17,0.5-25.5,0.2c-4.6-0.2-6.4,1.8-6.5,6.5c-0.1,6.8,0,13.7,0,20.5c0,5.6-1.3,6.8-7,7
		c-4.7,0.2-8.5,1-14,1l-1.5,28.5c0,7.2,0,14.3,0,21.5l0,7c0,15,0.1,30,0,45c-0.1,13.5-0.3,27-0.5,40.5c-0.1,10,1.1,20,0,30
		c-0.3,2.4,0.3,4.8-1,7l1.5,1.7c-10-0.1-16.5-0.6-26.5-0.7c-2,0-4,0-6,0c-4.1,0-5.8,1.7-6,6c0,0.7,0,1.3,0,2
		c-0.1,8.7-0.8,9.4-9.5,9.5l-3.5,0.5c-3.8,0.1-7.7,0-11.5,0c-18,0-36,0.1-54,0c-22.5-0.1-45,0.5-67.5-0.4l-8.8-4.5
		c0.9-4.6-0.7-9-0.2-13.5l-12-2.2c-11,0.6-22-0.2-33,0.4c-3.9,0.2-7.7-0.3-11.5-0.3l-52.1-1c-20.8-1.1-42.3-1.1-62.9,2.3
		c-19.1,3.1-38.5,5.9-56,14.7c-17.2,8.7-35.4,25.9-35.7,46.6c-0.1,4.5,1.4,8.9,4.4,12.1c7.1,7.4,17.3,4.3,25-0.3
		c12.9-7.5,25-19,30.7-33c8.8-21.5-3.7-43.1-20.5-56.5c-17.2-13.7-36.9-24.3-57.8-31c-9.4-3-19-5.3-28.8-6.6"/>
</g>
<g id="building_right_right">
	<path class="st3" d="M1647.5,607.2c0,39,0-41.2,0-48.2l0.3-14.5c-0.2-10.2,0-20.3-0.1-30.5c-0.3-15.5,0.2-31,0.4-46.5
		c0.1-7.5-0.7-7.2-8-7.7c-10.9-0.7-21.7,0.4-32.5,0.1c-5.2-0.2-10.6-1.3-16-0.1c-4,0.9-5.5,2.3-5.5,6.2c0.1,15.3-0.1,30.7,0.1,46
		c0.2,12.7,0.3,25.4,0.1,38c-0.2,12.7,1.2,31.3-0.2,44"/>
</g>
<path id="building_middle" class="st3" d="M944.5,295c23.7,0,39.8,0,63.5,0c5.3,0,6,0.7,6,6c0,26.5,0,53,0,79.5c0,36,0.2,72-0.1,108
	c-0.1,11.5,0,23-0.1,34.5c0,7.3-0.3,60.6,0.2,67.9"/>
<path id="building_left_middle_02" class="st3" d="M801,342.2c-10.2,1-20.3,0.2-30.5,0.2c-22,0.1-44,0-66,0c-9.5,0-9.5,0-9.5,9.5
	c0,24.2,0.1,67.3-0.1,91.5"/>
<path id="building_left_middle" class="st3" d="M603,357.8c0-4.5,0.5-16.3,0.5-20.8c0-14.2,0-28.3,0-42.5c0-16.5,0-33,0-49.5
	l3.9-6.7c4.6,2.4,8.7,6.2,12.6,9.8c12.6,11.4,25,23,37.5,34.5c6.9,6.3,13.6,12.7,20.5,19c1.1,1,0.1,55.2,0.5,56.5"/>
<path id="background_right_middle" class="st3" d="M1186.5,316.5c1.2-7.5,0.3-15,0.7-22.5l1.8-17.2c6.6-1.6,13.4-1.1,20-0.5
	c6.9,0.6,13.7-0.3,20.5,0.1c7.8,0.5,15.6-0.1,23.5,0.1c9.8,0.3,19.7-0.3,29.5-0.4c7-0.1,7.2,0.2,7.5,7c0.8,16-0.2,32,0.3,48l-0.4,40
	c1.7,11.6-0.2,23.3,0.3,35c0.7,15.8-0.3,31.7-0.2,47.5c0.1,10.3-0.2,20.7,0.3,31c0.5,10.6-0.3,21.3-0.3,32c-0.1,13.5,0,35.5,0,49"/>
<path id="background_right_buildings" class="st3" d="M1290.1,364c6,0,59.9,0,65.9,0c6.5,0,13-0.5,19.5,0.5l1.7,6
	c-0.4,9.5-0.2,19-0.2,28.5l1.5,7.5c13.2,1,26.3,0.2,39.5,0.5c5,0.1,10-0.7,15,0.5l2,48.5c1.2,0.3,2.4,1.1,3.5,0.9
	c6.1-1.1,8.9,2.9,11.5,7.1c3.7,6,7.9,11.7,12.6,17c1.8,2,2.6,4.3,2.5,7c-0.2,13.7-0.7,27.3-0.4,41c0.2,8,0.1,16,0.1,24"/>
<path id="line_-_background" class="st3" d="M1083.6,419.4c-7.2,0.1-60.9,0.1-68.1,0.1"/>
<g>
	<path id="background_letft_building" class="st3" d="M548.5,424.7c-7,0.3-21.5-1-28.5-0.7l-1.5,11c0,21.7,0,43.3,0,65
		c0,15.8-0.1,31.7,0.1,47.5c0,3.7-0.8,5.8-5.1,5.6c-4.8-0.2-5.5-0.6-5.5-5.6c0-16.5,0-33,0-49.5c0-6.3-0.4-12.7-0.4-19l-0.1-9.5
		c0-13.2-0.1-26.3,0.1-39.5c0.1-4.7-1-6-5.6-6.6c-9.8-1.3-19.7,1.1-29.5-0.4c-4.2-0.6-5.9-2.5-5.5-6.5c1.1-9.8,0.1-19.7,0.5-29.5
		c0.1-2.6-1.1-3.9-3.5-4c-3.2-0.1-6.3-0.1-9.5,0c-3.2,0.1-5.1,2.5-4.8,5c0.7,7.6-0.1,15.2-0.2,23.1c-1.7,1.9-4.3,2.6-7.5,2.5
		c-8.2-0.4-16.3,0.5-24.5-0.5c-1-0.1-2.5-0.1-2.9,0.5c-5.4,7.7-14.6,10.5-21.2,16.8c-2.4,2.3-4.5,4.2-3.8,7.6c1,5-0.4,10,0,15
		c0.4,4.2-1.8,4.7-5.1,4.6c-4.3-0.1-8.7-0.4-13,0.5l-1.4,9.5c0.3,12.3,0.1,24.7,0.2,37c0,10,0.1,20-0.1,30c-0.2,8.3,0.3,16.7,0.4,25
		c0.1,8.7-0.7,17.3,0,26"/>
</g>
<polyline id="highestbuilding" class="st3" points="801,352.3 801,159.2 839.2,159.2 839.2,128.3 862.8,128.3 862.8,13.3 
	871.3,110.8 884,110.8 884,144 909.4,144 909.4,161 944.5,161 944.5,327.5 "/>
</svg>
